<?xml version="1.0" encoding="UTF-8"?>
<svg width="148px" height="49px" viewBox="0 0 148 49" version="1.1" xmlns="http://www.w3.org/2000/svg" xmlns:xlink="http://www.w3.org/1999/xlink">
    <title>White wiim logo</title>
    <g id="web页面" stroke="none" stroke-width="1" fill="none" fill-rule="evenodd">
        <g id="HOME" transform="translate(-136.000000, -287.000000)" fill="#FFFFFF" fill-rule="nonzero">
            <g id="light" transform="translate(0.000000, 60.000000)">
                <g id="text" transform="translate(136.000000, 218.000000)">
                    <g id="White-wiim-logo" transform="translate(0.000000, 9.000000)">
                        <path d="M45.8687219,33.3760098 C48.5924284,33.3760098 50.8004288,31.191836 50.8004288,28.497521 L50.8004288,5.10110225 C50.8832803,3.30690777 49.9628224,1.61279145 48.4044112,0.691196335 C46.8459999,-0.230398778 44.9017183,-0.230398778 43.343307,0.691196335 C41.7848958,1.61279145 40.8644379,3.30690777 40.9472894,5.10110225 L40.9472894,28.477194 C40.939081,29.7736289 41.4539617,31.019754 42.3778005,31.9393472 C43.3016393,32.8589405 44.5581188,33.3760098 45.8687219,33.3760098 L45.8687219,33.3760098 Z" id="路径"></path>
                        <path d="M4.9869266,33.3761054 C7.71063311,33.3761054 9.9186335,31.191836 9.9186335,28.497521 L9.9186335,5.10110225 C9.9186335,2.39836759 7.70373311,0.207368254 4.97151501,0.207368254 C2.23929692,0.207368254 0.0243532551,2.39836759 0.0243532551,5.10110225 L0.0243532551,28.477194 C0.0188836658,29.7798693 0.54028092,31.0306184 1.47243242,31.9508019 C2.40458392,32.8709855 3.67005505,33.384163 4.9869266,33.3761054 Z" id="路径"></path>
                        <path d="M50.8004288,42.0861448 L50.8004288,33.8536951 L50.8004288,33.8536951 L50.8004288,32.9084879 C49.4459498,34.1334436 47.7017468,34.8523525 45.8687219,34.9411916 C43.9063135,34.9920091 41.913082,33.792714 40.3616492,32.3901485 L29.0598209,21.9522153 C26.977786,20.2320823 23.9497832,20.2320823 21.8677483,21.9522153 L10.56592,32.3901485 C9.01448723,33.792714 7.02125569,34.9920091 5.04857293,34.9411916 C3.21554799,34.8523525 1.47134504,34.1334436 0.116866035,32.9084879 L0.116866035,33.8536951 L0.0243965311,33.8536951 L0.0243965311,42.0861448 C-0.109170531,44.7794771 0.188786761,47.9911489 3.93893888,48.9261925 C7.93567635,49.4546955 8.72680433,47.0459417 11.5111638,44.8607853 L25.4329614,31.9836078 L39.3444847,44.8201312 C42.1288442,47.0459417 42.9302465,49.4546955 46.926984,48.8855385 C50.6771361,47.9911489 50.964819,44.7794771 50.8004288,42.0861448 Z" id="路径"></path>
                        <path d="M143.013073,15.8439409 C145.73678,15.8439409 147.94478,18.0281147 147.94478,20.7224297 L147.94478,44.0985214 C147.94478,46.7928363 145.73678,48.9770101 143.013073,48.9770101 C140.289367,48.9770101 138.081367,46.7928363 138.081367,44.0985214 L138.081367,20.7224297 C138.081367,19.428574 138.600956,18.1877113 139.52583,17.2728172 C140.450704,16.3579231 141.705103,15.8439409 143.013073,15.8439409 Z" id="路径"></path>
                        <path d="M102.131278,15.8439409 C103.438305,15.8439409 104.69165,16.3582444 105.614894,17.2734318 C106.538138,18.1886193 107.055439,19.4295095 107.052721,20.7224297 L107.052721,44.0985214 C106.932416,46.7035591 104.762342,48.7543966 102.126141,48.7543966 C99.4899394,48.7543966 97.3198654,46.7035591 97.1995712,44.0985214 L97.1995712,20.7224297 C97.1995712,18.0281147 99.4075716,15.8439409 102.131278,15.8439409 Z" id="路径"></path>
                        <path d="M147.975603,7.13380588 L147.975603,15.3662556 L147.975603,16.3216263 C146.623019,15.0937347 144.877695,14.3743636 143.043897,14.2889227 C141.071214,14.2889227 139.077982,15.4475637 137.526549,16.8501292 L126.224721,27.2778989 C124.147255,29.0104485 121.110115,29.0104485 119.032649,27.2778989 L107.73082,16.8501292 C106.179388,15.4475637 104.186156,14.2482686 102.223748,14.2889227 C100.389949,14.3743636 98.644625,15.0937347 97.2920407,16.3216263 L97.2920407,15.3662556 L97.2920407,7.13380588 C97.035181,4.44047357 97.3228639,1.23896535 101.073016,0.293758158 C105.069753,-0.224581267 105.871156,2.18417254 108.655515,4.40998301 L122.567039,17.2465064 L136.488836,4.40998301 C139.273196,2.18417254 140.064324,-0.224581267 144.061061,0.344575749 C147.811213,1.23896535 148.109171,4.44047357 147.975603,7.13380588 Z" id="路径"></path>
                        <path d="M64.6605801,13.8722184 C63.3526101,13.8722184 62.0982111,14.3862006 61.1733367,15.3010947 C60.2484622,16.2159888 59.7288732,17.4568515 59.7288732,18.7507071 L59.7288732,44.0985214 C59.7288732,46.7928363 61.9368736,48.9770101 64.6605801,48.9770101 C67.3842866,48.9770101 69.592287,46.7928363 69.592287,44.0985214 L69.592287,18.7507071 C69.592287,17.4568515 69.0726979,16.2159888 68.1478235,15.3010947 C67.222949,14.3862006 65.9685501,13.8722184 64.6605801,13.8722184 Z" id="路径"></path>
                        <ellipse id="椭圆形" cx="64.6605801" cy="5.10110225" rx="4.9317069" ry="4.87848872"></ellipse>
                        <path d="M83.4216151,13.8722184 C82.1136451,13.8722184 80.8592461,14.3862006 79.9343717,15.3010947 C79.0094972,16.2159888 78.4899082,17.4568515 78.4899082,18.7507071 L78.4899082,44.0985214 C78.4899082,46.7928363 80.6979086,48.9770099 83.4216151,48.9770099 C86.1453215,48.9770099 88.353322,46.7928363 88.353322,44.0985214 L88.353322,18.7507071 C88.353322,16.0563922 86.1453216,13.8722184 83.4216151,13.8722184 Z" id="路径"></path>
                        <ellipse id="椭圆形" cx="83.4216151" cy="5.10110225" rx="4.9317069" ry="4.87848872"></ellipse>
                    </g>
                </g>
            </g>
        </g>
    </g>
</svg>